<?xml version="1.0" encoding="UTF-8" standalone="no"?>
<!-- Created with Inkscape (http://www.inkscape.org/) -->

<svg
   width="100.52628mm"
   height="111.0694mm"
   viewBox="0 0 100.52628 111.0694"
   version="1.1"
   id="svg1"
   xml:space="preserve"
   xmlns="http://www.w3.org/2000/svg"
   xmlns:svg="http://www.w3.org/2000/svg"><defs
     id="defs1" /><g
     id="layer1"
     transform="translate(-6.8868638,-218.57363)"><g
       id="g679"
       transform="translate(-64.278,126.44304)"><rect
         style="fill:#ffffff;fill-opacity:1;stroke-width:264.583"
         id="rect686"
         width="13.970345"
         height="20.090689"
         x="94.599197"
         y="148.39612" /><path
         style="fill:#0d1215"
         d="m 81.076871,202.54832 c -0.358431,-0.54704 -0.380647,-0.8678 -0.138349,-1.9976 0.821419,-3.83014 3.566007,-6.34656 6.922022,-6.34656 1.841235,0 1.667367,0.61106 2.233898,-7.85099 0.595821,-8.89953 0.838947,-20.15664 0.530447,-24.56046 -0.142718,-2.03729 -0.259973,-5.96636 -0.260567,-8.73125 -9.52e-4,-4.43243 0.07266,-5.30876 0.62233,-7.40833 0.587743,-2.24502 2.548674,-7.72155 2.907785,-8.12094 0.09072,-0.10089 0.819783,0.23053 1.620147,0.73649 4.025255,2.54463 9.385236,2.8382 15.591476,0.85395 4.89448,-1.56484 9.07534,-4.18224 12.49363,-7.82153 l 1.75906,-1.87279 0.59041,1.63011 c 1.92466,5.31398 4.00068,8.28135 14.01542,20.03299 10.46141,12.27578 14.8508,19.57206 16.98572,28.23457 0.7502,3.04399 0.80402,8.12423 0.1126,10.62954 -0.5158,1.86899 -1.58624,4.28684 -2.67164,6.03458 l -0.69834,1.12448 h 8.88684 c 9.70545,0 9.57657,-0.022 8.77831,1.49747 -0.6094,1.15998 -2.55722,2.91826 -3.87788,3.50055 -2.20981,0.9743 -4.92568,1.0874 -26.11351,1.0874 h -20.4399 l -0.4421,-0.67474 c -0.38295,-0.58446 -0.40002,-0.86282 -0.12754,-2.0804 0.68229,-3.04877 3.15208,-5.75013 5.61768,-6.1444 0.56385,-0.0902 1.02518,-0.18886 1.02518,-0.21934 0,-0.0305 -0.49337,-0.57405 -1.09638,-1.20795 -2.24735,-2.36245 -3.2827,-6.1918 -3.07385,-11.36901 0.0998,-2.47377 0.25599,-3.3884 0.83538,-4.89154 0.8837,-2.29259 2.80639,-5.41987 4.3534,-7.08085 0.64379,-0.69122 1.0816,-1.25677 0.97292,-1.25677 -0.49693,0 -3.45564,1.77741 -4.52374,2.71759 -2.80065,2.46524 -3.54301,4.46849 -4.48364,12.09907 -0.97641,7.92086 -2.45918,17.20003 -2.90698,18.19192 -0.21396,0.47394 -0.77752,1.09857 -1.25234,1.38807 -0.80163,0.48876 -1.34187,0.52644 -7.56143,0.52736 -4.11318,6.1e-4 -6.89563,-0.10471 -7.2099,-0.27291 -1.131966,-0.60581 -0.26533,-4.2386 1.50439,-6.30611 1.25959,-1.47154 3.14404,-2.41583 4.82113,-2.41583 1.24281,0 1.30575,-0.0355 1.46401,-0.82682 0.24557,-1.22783 0.20051,-12.93151 -0.0498,-12.93151 -0.37245,0 -3.79923,-2.14401 -5.9853,-3.74478 -1.15468,-0.84552 -2.13509,-1.50163 -2.1787,-1.45802 -0.0825,0.0825 -0.31825,2.32667 -1.018884,9.70072 -0.740745,7.79616 -1.737344,15.98927 -2.039571,16.76744 C 97.04203,203.07249 96.266723,203.2 88.517724,203.2 H 81.503867 Z M 103.6742,166.54276 c 0.58842,-1.29146 0.36586,-2.65606 -0.79478,-4.87302 -1.34411,-2.56742 -1.53909,-4.15964 -0.79367,-6.48097 0.5829,-1.81523 0.40994,-2.72664 -0.68016,-3.58411 -0.80319,-0.63179 -2.417584,-0.69549 -3.495799,-0.13792 -0.421415,0.21792 -0.998678,0.8961 -1.309777,1.53874 -1.061067,2.19188 -0.57868,5.20179 1.36432,8.51286 1.208897,2.06009 3.722866,5.39298 4.164836,5.52152 0.89265,0.25961 1.25308,0.14365 1.54503,-0.4971 z M 99.844194,132.55 c -0.747412,-0.13492 -1.929185,-0.45704 -2.626163,-0.71582 l -1.267232,-0.47051 0.06508,-1.79528 c 0.08656,-2.38778 -0.621153,-3.90797 -2.321297,-4.98616 -1.692723,-1.0735 -2.441732,-1.22858 -8.122794,-1.68188 -4.806611,-0.38352 -5.08166,-0.43643 -6.900066,-1.32732 -2.308493,-1.13101 -4.218131,-3.11142 -5.549502,-5.75517 -1.744688,-3.46449 -2.504034,-8.28105 -1.52573,-9.67777 0.581293,-0.82991 1.329276,-1.06726 4.796282,-1.52194 3.050785,-0.40009 6.861737,-1.37002 8.36483,-2.12893 0.459307,-0.2319 1.455713,-0.88452 2.214235,-1.45025 1.139276,-0.84972 1.448578,-1.262468 1.778445,-2.373251 0.739205,-2.489175 2.144527,-4.131672 4.599414,-5.375658 2.55812,-1.296297 10.695604,-1.553399 16.725604,-0.52844 6.73172,1.144233 14.39895,4.797902 16.62047,7.920149 0.6112,0.85903 0.7011,1.24449 0.7011,3.00606 0,1.86995 -0.0939,2.21495 -1.25925,4.62534 -1.5121,3.12767 -3.37682,5.96944 -4.65135,7.08849 -2.45293,2.1537 -5.23328,2.3616 -7.6447,0.57163 -0.89613,-0.66518 -0.94159,-0.78317 -2.57735,-6.68901 -0.38117,-1.3762 -1.10145,-3.44462 -1.60062,-4.59648 -0.90126,-2.07975 -3.2867,-6.36539 -3.45138,-6.20071 -0.0473,0.04729 0.26364,1.126409 0.69096,2.39804 0.42731,1.27163 1.18253,4.48277 1.67825,7.13586 0.49573,2.65309 1.15563,5.49589 1.46646,6.31733 1.70133,4.49621 5.44951,6.58397 8.95992,4.99076 0.62477,-0.28355 1.83067,-1.17821 2.67979,-1.98813 l 1.54384,-1.47258 0.0329,2.19238 c 0.0181,1.20581 0.10113,2.66863 0.18447,3.25071 0.14921,1.04229 0.11811,1.09071 -2.05128,3.194 -4.49627,4.35926 -8.16753,6.50556 -13.10233,7.65991 -2.20475,0.51574 -6.61325,0.71638 -8.45106,0.38463 z"
         id="path679" /></g></g></svg>
